<?xml version="1.0" encoding="utf-8"?>
<!-- Generator: Adobe Illustrator 27.3.1, SVG Export Plug-In . SVG Version: 6.00 Build 0)  -->
<svg version="1.1" id="Layer_1" xmlns="http://www.w3.org/2000/svg" xmlns:xlink="http://www.w3.org/1999/xlink" x="0px" y="0px"
	 viewBox="0 0 1000 1000" style="enable-background:new 0 0 1000 1000;" xml:space="preserve">
<style type="text/css">
	.st0{fill:none;stroke:#000000;stroke-width:6;stroke-linecap:round;stroke-miterlimit:10;}
	.st1{fill:#FAFAFF;}
	.st2{fill:none;stroke:#000000;stroke-width:6;stroke-miterlimit:10;}
</style>
<path class="st0" d="M-761.73-275.82h45.42c2.71,0,5.35-0.9,7.49-2.56l28.19-21.85"/>
<circle class="st0" cx="-669.61" cy="-312.33" r="12.11"/>
<circle class="st1" cx="503.28" cy="151.89" r="5.11"/>
<g>
	<g>
		<g>
			<g>
				<path d="M191.61,401.39c-14.47,0-26.24,11.77-26.24,26.24c0,6.06,2.08,11.62,5.54,16.07c-0.58,0.18-1.14,0.45-1.64,0.84
					l-48.96,37.95c-2.79,2.17-6.28,3.36-9.81,3.36h-78.9c-2.88,0-5.21,2.33-5.21,5.21s2.33,5.21,5.21,5.21h78.9
					c5.83,0,11.59-1.97,16.2-5.54l48.96-37.95c1.01-0.79,1.63-1.88,1.88-3.04c4.07,2.6,8.89,4.13,14.07,4.13
					c14.47,0,26.24-11.77,26.24-26.24S206.08,401.39,191.61,401.39z M191.61,443.45c-8.72,0-15.82-7.1-15.82-15.82
					c0-8.72,7.1-15.82,15.82-15.82s15.82,7.1,15.82,15.82C207.43,436.35,200.33,443.45,191.61,443.45z"/>
			</g>
			<g>
				<path d="M295.83,427.63c-14.47,0-26.24,11.77-26.24,26.24c0,6.06,2.08,11.62,5.54,16.07c-0.58,0.18-1.14,0.45-1.64,0.84
					l-48.96,37.95c-2.79,2.17-6.28,3.36-9.81,3.36H31.59c-2.88,0-5.21,2.33-5.21,5.21s2.33,5.21,5.21,5.21h183.12
					c5.83,0,11.59-1.97,16.2-5.54l48.96-37.95c1.01-0.79,1.63-1.88,1.88-3.04c4.07,2.6,8.89,4.13,14.07,4.13
					c14.47,0,26.24-11.77,26.24-26.24S310.3,427.63,295.83,427.63z M295.83,469.69c-8.72,0-15.82-7.1-15.82-15.82
					c0-8.72,7.1-15.82,15.82-15.82c8.72,0,15.82,7.1,15.82,15.82C311.65,462.59,304.55,469.69,295.83,469.69z"/>
			</g>
			<g>
				<path d="M217.85,635.5c0-14.47-11.77-26.24-26.24-26.24c-5.18,0-10,1.53-14.07,4.13c-0.25-1.16-0.87-2.25-1.88-3.04
					l-48.96-37.95c-4.61-3.57-10.36-5.54-16.2-5.54h-78.9c-2.88,0-5.21,2.33-5.21,5.21s2.33,5.21,5.21,5.21h78.9
					c3.53,0,7.02,1.19,9.81,3.36l48.96,37.95c0.51,0.39,1.07,0.66,1.64,0.84c-3.46,4.45-5.54,10.01-5.54,16.07
					c0,14.47,11.77,26.24,26.24,26.24S217.85,649.96,217.85,635.5z M207.43,635.5c0,8.72-7.1,15.82-15.82,15.82
					s-15.82-7.1-15.82-15.82s7.1-15.82,15.82-15.82S207.43,626.77,207.43,635.5z"/>
			</g>
			<g>
				<path d="M308.74,609.26c0-14.47-11.77-26.24-26.24-26.24c-5.18,0-10,1.53-14.07,4.13c-0.25-1.16-0.87-2.25-1.88-3.04
					l-48.96-37.95c-4.61-3.57-10.36-5.54-16.2-5.54H31.59c-2.88,0-5.21,2.33-5.21,5.21c0,2.88,2.33,5.21,5.21,5.21h169.79
					c3.53,0,7.02,1.19,9.81,3.36l48.96,37.95c0.51,0.39,1.07,0.66,1.64,0.84c-3.46,4.45-5.54,10.01-5.54,16.07
					c0,14.47,11.77,26.24,26.24,26.24S308.74,623.72,308.74,609.26z M298.32,609.26c0,8.72-7.1,15.82-15.82,15.82
					c-8.72,0-15.82-7.1-15.82-15.82c0-8.72,7.1-15.82,15.82-15.82C291.22,593.44,298.32,600.53,298.32,609.26z"/>
			</g>
		</g>
		<g>
			<g>
				<path d="M805.86,661.73c14.47,0,26.24-11.77,26.24-26.24c0-6.06-2.08-11.62-5.54-16.07c0.58-0.18,1.14-0.45,1.64-0.84
					l48.96-37.95c2.79-2.17,6.28-3.36,9.81-3.36h78.9c2.88,0,5.21-2.33,5.21-5.21s-2.33-5.21-5.21-5.21h-78.9
					c-5.83,0-11.59,1.97-16.2,5.54l-48.96,37.95c-1.01,0.79-1.63,1.88-1.88,3.04c-4.07-2.6-8.89-4.13-14.07-4.13
					c-14.47,0-26.24,11.77-26.24,26.24C779.62,649.96,791.39,661.73,805.86,661.73z M805.86,619.68c8.72,0,15.82,7.1,15.82,15.82
					s-7.1,15.82-15.82,15.82s-15.82-7.1-15.82-15.82S797.13,619.68,805.86,619.68z"/>
			</g>
			<g>
				<path d="M701.64,635.5c14.47,0,26.24-11.77,26.24-26.24c0-6.06-2.08-11.62-5.54-16.07c0.58-0.18,1.14-0.45,1.64-0.84
					l48.96-37.95c2.79-2.17,6.28-3.36,9.81-3.36h183.12c2.88,0,5.21-2.33,5.21-5.21c0-2.88-2.33-5.21-5.21-5.21H782.76
					c-5.83,0-11.59,1.97-16.2,5.54l-48.96,37.95c-1.01,0.79-1.63,1.88-1.88,3.04c-4.07-2.6-8.89-4.13-14.07-4.13
					c-14.47,0-26.24,11.77-26.24,26.24C675.4,623.72,687.17,635.5,701.64,635.5z M701.64,593.44c8.72,0,15.82,7.1,15.82,15.82
					c0,8.72-7.1,15.82-15.82,15.82s-15.82-7.1-15.82-15.82C685.82,600.53,692.92,593.44,701.64,593.44z"/>
			</g>
			<g>
				<path d="M779.62,427.63c0,14.47,11.77,26.24,26.24,26.24c5.18,0,10-1.53,14.07-4.13c0.25,1.16,0.87,2.25,1.88,3.04l48.96,37.95
					c4.61,3.57,10.36,5.54,16.2,5.54h78.9c2.88,0,5.21-2.33,5.21-5.21s-2.33-5.21-5.21-5.21h-78.9c-3.54,0-7.02-1.19-9.81-3.36
					l-48.96-37.95c-0.51-0.39-1.07-0.66-1.64-0.84c3.46-4.45,5.54-10.01,5.54-16.07c0-14.47-11.77-26.24-26.24-26.24
					C791.39,401.39,779.62,413.16,779.62,427.63z M790.04,427.63c0-8.72,7.1-15.82,15.82-15.82s15.82,7.1,15.82,15.82
					c0,8.72-7.1,15.82-15.82,15.82S790.04,436.35,790.04,427.63z"/>
			</g>
			<g>
				<path d="M688.72,453.87c0,14.47,11.77,26.24,26.24,26.24c5.18,0,10-1.53,14.07-4.13c0.25,1.16,0.87,2.25,1.88,3.04l48.96,37.95
					c4.61,3.57,10.36,5.54,16.2,5.54h169.79c2.88,0,5.21-2.33,5.21-5.21s-2.33-5.21-5.21-5.21H796.08c-3.54,0-7.02-1.19-9.81-3.36
					l-48.96-37.95c-0.51-0.39-1.07-0.66-1.64-0.84c3.46-4.45,5.54-10.01,5.54-16.07c0-14.47-11.77-26.24-26.24-26.24
					C700.5,427.63,688.72,439.4,688.72,453.87z M699.15,453.87c0-8.72,7.1-15.82,15.82-15.82c8.72,0,15.82,7.1,15.82,15.82
					c0,8.72-7.1,15.82-15.82,15.82C706.24,469.69,699.15,462.59,699.15,453.87z"/>
			</g>
		</g>
		<g>
			<path d="M265.67,557.66c-1.1-0.52-2.07-1.29-2.78-2.39c-2.39-3.61-1.36-9.1,2.07-11.75c1.03-0.77,2.32-1.29,3.55-1.42
				c0.19-3.36,0.19-6.65,0.13-10c-0.06-2.26-0.13-4.52-0.39-6.71c-0.06-0.84-0.19-1.68-0.45-2.45c-0.13-0.45-0.39-0.84-0.77-1.1
				c-0.77-0.58-1.74-0.77-2.58-1.23c-0.97-0.65-1.81-1.61-2.32-2.71c-1.61-3.68,0.32-8.52,3.94-9.87c0.71-0.26,1.55-0.32,2.26-0.39
				c1.94,0,12.97-0.52,14.91-0.65c3.1-0.19,6.45,0.06,9.36,1.16c1.68,0.65,3.29,1.68,4.58,2.97c1.23,1.36,2.07,3.1,2.39,4.84
				c0.52,2.52,0,5.23-0.9,7.55c-0.97,2.39-2.84,4.26-4.71,6c7.42,3.23,12.07,11.87,9.1,19.43c-0.71,2-2.13,3.81-3.74,5.16
				c-2.39,1.87-5.42,3.1-8.45,3.42c-3.81,0.39-7.62-0.45-11.42-0.39c-3.16,0.06-6.33,1.16-9.49,1.23
				C268.51,558.44,267.03,558.31,265.67,557.66z M285.23,543.72c0.65-0.45,1.16-1.16,1.36-1.94c0.39-1.74-1.36-3.36-3.1-3.81
				c-0.65-0.19-2.45-0.39-3.03-0.13c-0.58,0.32-0.45,1.74-0.52,2.39c0,1.55,0.07,3.16-0.06,4.71
				C281.74,545.14,283.81,544.82,285.23,543.72z M280.32,526.17c1.74-0.13,5.16-0.9,5.94-2.45c0.71-1.48-0.45-3.1-2-3.68
				c-1.74-0.77-4.13-0.58-4.19,1.36C279.93,522.94,280,524.62,280.32,526.17z"/>
			<path d="M320.07,557.92c-2.39-0.77-4.78-2.07-6.58-3.94c-1.87-1.81-2.84-4.58-3.1-7.16c-0.45-4.39,0.97-8.71,1.23-13.1
				c0.13-2.58-0.06-5.36-1.1-7.74c-0.84-1.94-2.52-3.55-3.29-5.49c-1.61-4.07,1.42-9.16,5.16-11.36c5.16-2.97,12.07-0.32,12.58,5.61
				c0.19,2.13-0.13,4.32-0.52,6.45c-0.71,3.48-1.74,6.91-2.39,10.39c-0.32,2-0.58,4-0.45,6c0.19,3.03,2.71,5.49,5.68,5.16
				c1.36-0.13,2.71-1.03,3.48-2.13c0.97-1.29,1.55-2.9,1.74-4.45c0.39-2.39,0-4.84-0.58-7.23c-0.84-3.68-2.19-7.23-2.65-10.97
				c-0.13-1.48-0.19-3.03,0.13-4.52c0.39-1.36,1.1-2.52,2.13-3.42c1.16-1.03,2.71-1.68,4.19-1.94c2.39-0.39,4.91,0.19,6.91,1.61
				c1.55,1.03,2.84,2.58,3.68,4.32c0.9,1.74,1.42,3.94,0.84,5.81c-0.65,2.26-2.52,4-3.48,6.13c-1.1,2.39-1.29,5.1-1.1,7.68
				c0.26,4.32,1.61,8.65,1.23,13.04c-0.19,2.52-1.16,5.16-2.84,7.03c-1.55,1.81-3.68,3.1-5.87,3.94
				C330.46,559.47,324.85,559.47,320.07,557.92z"/>
			<path d="M366.85,557.34c-1.29-0.45-2.65-1.29-3.36-2.45c-0.84-1.29-0.97-3.03-0.9-4.52c0.19-3.81,1.36-7.49,1.36-11.23
				c0-0.77-0.13-1.61-0.39-2.32c-0.39-0.97-1.1-1.74-1.81-2.45c-1.29-1.23-2.65-2.32-4.13-3.36c-1.61-1.16-3.36-2.19-4.84-3.55
				c-1.1-1.03-2.07-2.26-2.58-3.68c-0.58-1.61-0.58-3.55-0.13-5.23c0.77-2.78,2.32-5.42,4.45-7.29c1.48-1.29,3.29-2.52,5.29-2.58
				c1.16-0.06,2.32,0.32,3.36,0.9c0.58,0.32,2.19,2,2.58,2.58c0.32,0.52,1.36,3.16,1.55,3.74c0.39,1.16,2.13,8.2,2.45,9.36
				c0.06,0.13,0.32-0.06,0.45-0.13c0.52-0.26,1.03-0.65,1.36-1.16c0.52-0.65,0.71-1.48,0.97-2.32c0.13-0.58,0.77-4.45,0.9-5.1
				c0.45-1.74,1.03-3.55,2-5.1c0.9-1.29,2.13-2.45,3.61-2.9c3.42-1.16,7.36,0.07,9.36,2.97c0.77,1.16,1.36,2.52,1.36,3.94
				c0,1.68-0.32,3.36-0.97,4.91c-1.74,4.07-5.1,7.23-7.68,10.78c-1.42,1.94-2.78,4.13-3.03,6.52c-0.19,2.26,0.65,4.39,1.16,6.58
				c0.39,1.94,0.65,4,0.58,6c-0.06,1.36-0.06,2.84-0.77,4c-0.52,0.9-1.36,1.61-2.19,2.19c-1.1,0.71-2.32,1.29-3.55,1.55
				C371.18,558.37,368.92,557.98,366.85,557.34z"/>
			<path d="M408.73,556.82c-2.65-0.13-5.36,0.26-7.94-0.32c-1.48-0.39-2.97-1.1-4.07-2.13c-1.36-1.23-2.19-3.03-2.58-4.84
				c-0.52-2.26,0.84-12.58,0.97-14.91c0.13-2.52-0.13-5.1-0.39-7.62c0-0.45-0.52-2.45-0.65-2.84c-0.58-2.45-1.16-5.1-0.77-7.68
				c0.26-1.55,1.03-3.16,2.19-4.26c1.1-1.03,2.71-1.55,4.19-1.81c2.97-0.52,5.94,0.58,8.91,0.97c2.58,0.39,5.23,0.32,7.75-0.26
				c2.45-0.58,4.65-1.87,7.16-2.07c0.97-0.13,2,0.06,2.84,0.52c0.97,0.52,1.87,1.29,2.39,2.26c0.71,1.55,0.9,3.36,0.84,5.1
				c-0.06,1.16-0.32,2.39-0.97,3.42c-0.71,1.03-1.68,1.94-2.84,2.52c-1.94,0.97-4.39,1.1-6.39,0.52c-2.9-0.84-5.61-2.19-8.52-2.9
				c-0.84-0.26-1.87-0.45-2.58-0.06c-2.78,1.42-2.52,5.94,0.39,6.97c0.9,0.32,1.94,0.26,2.9,0.06c1.74-0.39,3.48-0.97,5.23-0.84
				c1.68,0.13,3.48,0.9,4.45,2.26c1.81,2.58,1.23,7.1-0.9,9.29c-0.32,0.39-0.77,0.71-1.29,0.9c-1.16,0.39-2.52,0.39-3.81,0.32
				c-0.32,0-2-0.13-2.32-0.19c-1.16-0.19-2.39-0.45-3.61-0.65c-0.26,0-1.23-0.19-1.48,0c-0.52,0.32-0.65,1.61-0.65,2.26
				c0.06,0.9,0.58,3.1,1.29,3.61c0.9,0.71,2.32,0.45,3.42,0.26c2.58-0.58,4.97-1.74,7.29-2.9c3.48-1.68,7.81-0.58,9.16,3.03
				c0.52,1.42,0.77,3.03,0.52,4.58c-0.26,1.42-0.97,2.9-1.94,4c-1.36,1.55-3.29,2.65-5.23,3.23
				C417.57,557.79,413.06,556.95,408.73,556.82z"/>
			<path d="M442.29,557.6c-2.19-0.13-4.58-0.84-6.2-2.39c-1.16-1.16-1.74-2.9-1.74-4.52c0.13-9.1,2.84-18.26,1.36-27.3
				c-0.32-2.19-0.52-4.52-0.06-6.71c0.65-3.03,2.26-5.29,4.97-6.78c2.71-1.48,5.87-2,8.97-2.26c4.9-0.32,10,0,14.78,1.1
				c1.94,0.45,3.87,1.23,5.42,2.39c2.19,1.61,4,4.07,4.71,6.71c0.65,2.58,0.32,5.68-1.1,8c-1.42,2.32-3.94,4.07-6.52,4.97
				c-1.42,0.58-4.07,1.74-4.19,3.29c0,0.45,0.26,0.9,0.58,1.29c2.32,2.84,5.87,4.52,8.78,6.91c1.36,1.1,2.78,2.39,3.36,4.07
				c1.23,3.23-1.03,7.49-4,9.23c-2.52,1.48-5.74,1.48-8.33,0.06c-1.61-0.97-2.9-2.58-3.87-4.19c-1.48-2.52-2.45-5.29-3.36-8.07
				c-0.19-0.71-0.52-1.42-0.97-2c-0.77-1.03-2.19-1.94-3.29-1.16c-1.03,0.71-1.55,2.19-1.68,3.49c-0.26,2.52,1.48,4.97,1.48,7.55
				C451.52,555.66,446.74,557.79,442.29,557.6z M450.61,528.69c2.19-0.26,4.78-1.16,6-3.03c2-3.16,0.07-7.68-3.61-7.1
				c-0.39,0.06-1.61,0.45-1.94,0.84C449.84,520.88,450.61,526.75,450.61,528.69z"/>
			<path d="M491.07,557.4c-2.19-0.58-4.32-1.61-6-3.16c-2.26-2.07-3.16-5.61-2.26-8.39c0.45-1.16,1.23-2.32,2.26-3.03
				c2.26-1.68,6.65-2.52,8.91-0.77c1.36,1.03,2,2.9,3.48,3.68c1.81,0.97,3.94-0.71,3.03-2.58c-0.32-0.65-0.97-1.03-1.61-1.36
				c-4-1.94-8.39-3.03-12.2-5.36c-2.13-1.29-4.07-2.97-5.29-5.03c-1.16-1.87-1.81-4.13-1.87-6.33c-0.06-2.78,0.77-5.68,2.19-8.13
				c2.07-3.55,5.36-6.26,9.36-7.62c4.77-1.68,10.52-1.36,15.1,0.64c1.68,0.78,3.29,1.81,4.58,3.1c2.97,2.9,4.52,7.1,4.19,11.23
				c-0.19,2-0.97,4.19-2.45,5.55c-3.03,2.65-9.16,1.94-12.52-0.32c-0.97-0.65-1.87-1.68-2.19-2.78c-0.26-1.03,0.06-2.19,0.45-3.23
				c0.58-1.36,2.19-3.87,1.23-4.9c-0.84-0.9-2.26-0.65-3.23,0.13c-1.1,0.97-1.81,2.52-1.74,3.94c0,1.42,0.45,2.9,1.16,4.13
				c0.71,1.29,1.81,2.39,3.03,3.29c3.36,2.45,7.68,3.48,10.91,6.2c1.94,1.61,3.42,4,3.94,6.52c0.58,2.97-0.06,6.52-1.87,9.04
				c-1.68,2.32-4.39,3.94-7.1,4.84C500.3,558.18,495.46,558.5,491.07,557.4z"/>
			<path d="M521.01,522.49c-0.52-0.32-0.9-0.84-1.1-1.36c-0.19-0.52-0.19-1.1-0.13-1.61c0.26-2-0.13-4-0.52-5.94
				c-0.06-0.45-0.19-0.97-0.19-1.42c0.26-3.03,3.61-4.19,6.52-3.36c1.23,0.39,2.45,1.55,2.71,2.78c0.39,2.45,0.19,4.97-0.26,7.42
				c-0.26,1.29-0.58,2.78-1.61,3.61C525.08,523.78,522.43,523.52,521.01,522.49z"/>
			<path d="M550.31,552.37c-0.13-1.1,0-2.13,0.26-3.16c1.16-4.65,2.19-9.49,2.19-14.26c-0.06-6-3.61-11.55-3.87-17.55
				c-0.06-1.61,0.13-3.29,0.77-4.71c0.58-1.29,1.61-2.45,2.78-3.16c2-1.23,4.52-1.61,6.84-1.55c1.36,0.06,2.71,0.32,3.94,0.97
				c0.9,0.45,1.81,1.29,2.26,2.26c0.39,0.77,0.52,1.68,0.52,2.52c0,4.07-1.16,8.07-0.84,12.07c0.06,0.52,0.19,1.1,0.45,1.55
				c0.52,0.71,1.42,1.23,2.26,1.42c3.03,0.65,6.19-1.29,6.07-4.45c-0.19-2.52-1.23-4.97-1.61-7.49c-0.26-1.68-0.26-3.55,0.58-5.03
				c1.23-2.19,3.81-3.74,6.33-4.19c4.07-0.77,9.29,0.71,10.39,4.71c0.45,1.61,0.45,3.42,0.32,5.1c-0.19,2.13-0.65,4.19-1.36,6.2
				c-0.97,2.97-2.13,5.94-2.45,9.1c-0.39,3.16,0.13,6.45,0.9,9.55c0.19,0.84,1.55,5.74,1.68,6.58c0.32,1.61,0.26,3.42-0.39,4.97
				c-0.45,1.03-1.23,2-2.19,2.65c-2.71,1.68-8.07,1.68-10.58-0.26c-1.16-0.9-2-2.32-2.52-3.74c-0.71-2.07-0.97-4.32-0.84-6.52
				c0.06-1.68,0.26-6.78-0.71-8.13c-0.71-1.03-2.65-0.84-3.81-0.32c-1.16,0.58-1.1,3.1-1.16,4.39c-0.06,2.26,0.26,4.52,0,6.71
				c-0.26,2.45-0.9,4.97-2.52,6.84c-0.84,1.03-2.13,1.74-3.42,2.07C556.18,558.5,551.02,556.82,550.31,552.37z"/>
			<path d="M607.29,557.92c-2.39-0.77-4.78-2.07-6.58-3.94c-1.87-1.81-2.84-4.58-3.1-7.16c-0.45-4.39,0.97-8.71,1.22-13.1
				c0.13-2.58-0.06-5.36-1.1-7.74c-0.84-1.94-2.52-3.55-3.29-5.49c-1.61-4.07,1.42-9.16,5.16-11.36c5.16-2.97,12.07-0.32,12.58,5.61
				c0.19,2.13-0.13,4.32-0.52,6.45c-0.71,3.48-1.74,6.91-2.39,10.39c-0.32,2-0.58,4-0.45,6c0.19,3.03,2.71,5.49,5.68,5.16
				c1.36-0.13,2.71-1.03,3.48-2.13c0.97-1.29,1.55-2.9,1.74-4.45c0.39-2.39,0-4.84-0.58-7.23c-0.84-3.68-2.19-7.23-2.65-10.97
				c-0.13-1.48-0.19-3.03,0.13-4.52c0.39-1.36,1.1-2.52,2.13-3.42c1.16-1.03,2.71-1.68,4.19-1.94c2.39-0.39,4.91,0.19,6.91,1.61
				c1.55,1.03,2.84,2.58,3.68,4.32c0.9,1.74,1.42,3.94,0.84,5.81c-0.64,2.26-2.52,4-3.48,6.13c-1.1,2.39-1.29,5.1-1.1,7.68
				c0.26,4.32,1.61,8.65,1.23,13.04c-0.19,2.52-1.16,5.16-2.84,7.03c-1.55,1.81-3.68,3.1-5.87,3.94
				C617.68,559.47,612.06,559.47,607.29,557.92z"/>
			<path d="M643.29,556.82c-1.1-0.52-2.19-1.36-2.9-2.39c-0.58-0.77-0.9-1.81-0.97-2.78c-0.19-1.87,0.13-3.81,0.39-5.74
				c1.16-9.04-0.65-18.33,0.26-27.43c0.13-1.48,0.45-3.03,1.16-4.39c0.64-1.03,1.68-1.94,2.71-2.58c3.87-2.26,9.42-1.74,11.87,1.94
				c0.58,0.84,0.97,1.74,1.36,2.58c1.94,4.65,2.32,9.87,4.39,14.52c0.39,0.9,1.49,3.23,2.52,3.48c0.58,0.13,0.97-0.52,1.16-1.16
				c0.45-1.81,0.13-3.81-0.32-5.61c-0.78-3.42-1.81-6.78-2.07-10.2c-0.13-1.81,0.39-3.55,1.42-5.03c0.97-1.36,2.58-2.45,4.19-2.9
				c2.19-0.71,4.71-0.58,6.78,0.39c1.03,0.52,2,1.23,2.71,2.19c0.84,1.16,1.29,2.65,1.48,4.07c0.39,2.71-0.06,5.42-0.45,8.13
				c-0.52,3.29-1.03,6.65-0.97,10c0.06,3.74,0.78,7.49,0.71,11.23c-0.06,2-0.19,4-0.65,5.94c-0.39,1.55-1.16,3.16-2.39,4.19
				c-3.1,2.52-8.13,1.74-10.91-1.1c-0.65-0.71-2.97-3.55-3.29-4.52c-0.32-1.1-2.84-7.81-3.23-8.91c-0.78-2.32-1.23-4.78-2.32-6.97
				c-0.32-0.58-1.1-1.87-1.81-1.94c-0.58-0.06-0.97,0.71-1.1,1.23c-0.64,1.87-0.45,3.94-0.19,5.87c0.58,3.87,2.07,7.62,2,11.49
				c-0.06,1.55-0.32,3.23-1.23,4.52c-0.71,1.03-1.87,1.74-3.03,2.13C648.33,557.92,645.55,557.79,643.29,556.82z"/>
			<path d="M701.24,557.79c-1.29,0-2.65-0.19-3.81-0.77c-0.84-0.39-1.61-1.1-2.07-1.94c-0.84-1.42-1.1-3.23-1.1-4.9
				c-0.06-3.61,2.58-22.07,3.16-25.75c0.13-0.84,0.19-1.74,0.19-2.58c-0.06-1.03-0.39-2.78-1.36-3.03
				c-0.52-0.13-1.16,0.06-1.48,0.45c-0.58,0.71-2.65,5.42-3.16,6.13c-1.48,2.13-4.65,2.19-6.45,0.32c-0.84-0.9-1.42-2.13-1.61-3.36
				c-0.32-2.13-0.39-4.32,0.13-6.45c0.39-1.74,1.16-3.42,2.39-4.78c0.97-1.16,2.39-2,3.81-2.52c2.45-0.9,13.04-0.32,15.68-0.19
				c4.13,0.19,8.45-0.52,12.39,0.71c1.48,0.52,2.97,1.48,3.87,2.78c1.42,2.07,1.81,4.9,1.55,7.42c-0.45,3.74-2.13,8.07-5.87,7.62
				c-0.71-0.06-1.29-0.45-1.81-0.9c-1.48-1.42-2.52-3.16-3.87-4.71c-0.45-0.58-1.81-2.07-2.52-2.19c-0.9-0.06-1.29,0.97-1.29,1.87
				c0.06,2.78,2.26,17.49,2.64,20.2c0.39,3.03,0.84,6,0.97,9.04c0.06,1.68,0,3.61-1.03,5.03c-0.64,0.9-1.74,1.55-2.84,1.87
				C705.63,557.73,703.37,557.79,701.24,557.79z"/>
		</g>
	</g>
	<g>
		<path d="M406.13,325.66v89.71c0,5.61,5.34,10.16,11.92,10.16h164.48c4.86,0,8.8-3.36,8.8-7.5v-93.29c0-4.25-4.04-7.69-9.03-7.69
			H416.23C410.65,317.05,406.13,320.91,406.13,325.66z M382.98,307.26c0-5.49,5.27-9.94,11.48-9.94h208.55
			c6.34,0,11.48,4.43,11.48,9.94v129.88c0,4.48-4.26,8.11-9.51,8.11H392.49c-5.25,0-9.51-3.63-9.51-8.11V307.26z M353.91,452.24
			h289.64c3.4,0,5.43,3.81,3.55,6.65l-8.63,13.02c-0.79,1.19-2.12,1.91-3.55,1.91H362.54c-1.43,0-2.76-0.72-3.55-1.91l-8.63-13.02
			C348.48,456.05,350.51,452.24,353.91,452.24z"/>
	</g>
	<g>
		<g>
			<path d="M589.99,647.26l21.3,21.3l-7.03,7.03l-21.3-21.3c-7.66,6.13-17.37,9.79-27.94,9.79c-24.71,0-44.76-20.05-44.76-44.76
				c0-24.71,20.05-44.76,44.76-44.76s44.76,20.05,44.76,44.76C599.78,629.88,596.12,639.6,589.99,647.26z M580.01,643.57
				c6.08-6.27,9.82-14.82,9.82-24.25c0-19.24-15.58-34.82-34.82-34.82c-19.24,0-34.82,15.58-34.82,34.82
				c0,19.24,15.58,34.82,34.82,34.82c9.43,0,17.98-3.74,24.25-9.82L580.01,643.57z M560.87,600.3c-3.45,1.56-5.86,5.03-5.86,9.07
				c0,5.49,4.45,9.95,9.95,9.95c4.04,0,7.51-2.4,9.07-5.86c0.57,1.85,0.88,3.82,0.88,5.86c0,10.99-8.91,19.9-19.9,19.9
				c-10.99,0-19.9-8.91-19.9-19.9c0-10.99,8.91-19.9,19.9-19.9C557.06,599.42,559.02,599.73,560.87,600.3z"/>
		</g>
		<g>
			<path d="M397.69,619.32c0-24.71,20.05-44.76,44.76-44.76c24.71,0,44.76,20.05,44.76,44.76c0,24.71-20.05,44.76-44.76,44.76
				c-10.56,0-20.28-3.67-27.94-9.79l-21.3,21.3l-7.03-7.03l21.3-21.3C401.35,639.6,397.69,629.88,397.69,619.32z M418.2,644.31
				c6.27,6.08,14.82,9.82,24.25,9.82c19.24,0,34.82-15.58,34.82-34.82c0-19.24-15.58-34.82-34.82-34.82
				c-19.24,0-34.82,15.58-34.82,34.82c0,9.43,3.74,17.98,9.82,24.25L418.2,644.31z M442.45,599.42c10.99,0,19.9,8.91,19.9,19.9
				c0,10.99-8.91,19.9-19.9,19.9c-10.99,0-19.9-8.91-19.9-19.9c0-2.04,0.31-4.01,0.88-5.86c1.56,3.45,5.04,5.86,9.07,5.86
				c5.49,0,9.95-4.45,9.95-9.95c0-4.04-2.4-7.51-5.86-9.07C438.44,599.73,440.41,599.42,442.45,599.42z"/>
		</g>
	</g>
	<g>
		<path d="M860.06,736.78H139.94c-65.77,0-119.27-53.5-119.27-119.27V382.49c0-65.77,53.5-119.27,119.27-119.27h720.12
			c65.77,0,119.27,53.5,119.27,119.27v235.02C979.33,683.28,925.83,736.78,860.06,736.78z M139.94,273.64
			c-60.02,0-108.85,48.83-108.85,108.85v235.02c0,60.02,48.83,108.85,108.85,108.85h720.12c60.02,0,108.85-48.83,108.85-108.85
			V382.49c0-60.02-48.83-108.85-108.85-108.85H139.94z"/>
	</g>
</g>
<g>
	<g>
		<path d="M-1129.21-821.61c-8.33,0-15.11,6.78-15.11,15.11c0,3.49,1.2,6.69,3.19,9.25c-0.33,0.1-0.65,0.26-0.95,0.48l-28.19,21.85
			c-1.61,1.25-3.62,1.93-5.65,1.93h-45.42c-1.66,0-3,1.34-3,3s1.34,3,3,3h45.42c3.36,0,6.67-1.13,9.33-3.19l28.19-21.85
			c0.58-0.45,0.94-1.08,1.08-1.75c2.34,1.5,5.12,2.38,8.1,2.38c8.33,0,15.11-6.78,15.11-15.11S-1120.88-821.61-1129.21-821.61z
			 M-1129.21-797.39c-5.02,0-9.11-4.08-9.11-9.11s4.08-9.11,9.11-9.11s9.11,4.08,9.11,9.11S-1124.19-797.39-1129.21-797.39z"/>
		<path d="M-1069.21-806.5c-8.33,0-15.11,6.78-15.11,15.11c0,3.49,1.2,6.69,3.19,9.25c-0.33,0.1-0.65,0.26-0.95,0.48l-28.19,21.85
			c-1.61,1.25-3.62,1.93-5.65,1.93h-105.42c-1.66,0-3,1.34-3,3s1.34,3,3,3h105.42c3.36,0,6.67-1.13,9.33-3.19l28.19-21.85
			c0.58-0.45,0.94-1.08,1.08-1.75c2.34,1.5,5.12,2.38,8.1,2.38c8.33,0,15.11-6.78,15.11-15.11S-1060.88-806.5-1069.21-806.5z
			 M-1069.21-782.29c-5.02,0-9.11-4.08-9.11-9.11s4.08-9.11,9.11-9.11s9.11,4.08,9.11,9.11S-1064.19-782.29-1069.21-782.29z"/>
		<path d="M-1114.11-686.83c0-8.33-6.78-15.11-15.11-15.11c-2.98,0-5.76,0.88-8.1,2.38c-0.14-0.67-0.5-1.3-1.08-1.75l-28.19-21.85
			c-2.66-2.06-5.97-3.19-9.33-3.19h-45.42c-1.66,0-3,1.34-3,3s1.34,3,3,3h45.42c2.04,0,4.04,0.69,5.65,1.93l28.19,21.85
			c0.29,0.23,0.61,0.38,0.95,0.48c-1.99,2.56-3.19,5.77-3.19,9.25c0,8.33,6.78,15.11,15.11,15.11S-1114.11-678.5-1114.11-686.83z
			 M-1120.11-686.83c0,5.02-4.08,9.11-9.11,9.11s-9.11-4.08-9.11-9.11s4.08-9.11,9.11-9.11S-1120.11-691.85-1120.11-686.83z"/>
		<path d="M-1061.78-701.94c0-8.33-6.78-15.11-15.11-15.11c-2.98,0-5.76,0.88-8.1,2.38c-0.14-0.67-0.5-1.3-1.08-1.75l-28.19-21.85
			c-2.66-2.06-5.97-3.19-9.33-3.19h-97.75c-1.66,0-3,1.34-3,3s1.34,3,3,3h97.75c2.04,0,4.04,0.69,5.65,1.93l28.19,21.85
			c0.29,0.23,0.61,0.38,0.95,0.48c-1.99,2.56-3.19,5.77-3.19,9.25c0,8.33,6.78,15.11,15.11,15.11S-1061.78-693.61-1061.78-701.94z
			 M-1067.78-701.94c0,5.02-4.08,9.11-9.11,9.11s-9.11-4.08-9.11-9.11s4.08-9.11,9.11-9.11S-1067.78-706.96-1067.78-701.94z"/>
	</g>
	<g>
		<path d="M-775.58-671.72c8.33,0,15.11-6.78,15.11-15.11c0-3.49-1.2-6.69-3.19-9.25c0.33-0.1,0.65-0.26,0.95-0.48l28.19-21.85
			c1.61-1.25,3.62-1.93,5.65-1.93h45.42c1.66,0,3-1.34,3-3s-1.34-3-3-3h-45.42c-3.36,0-6.67,1.13-9.33,3.19l-28.19,21.85
			c-0.58,0.45-0.94,1.08-1.08,1.75c-2.34-1.5-5.12-2.38-8.1-2.38c-8.33,0-15.11,6.78-15.11,15.11S-783.91-671.72-775.58-671.72z
			 M-775.58-695.94c5.02,0,9.11,4.08,9.11,9.11s-4.08,9.11-9.11,9.11s-9.11-4.08-9.11-9.11S-780.6-695.94-775.58-695.94z"/>
		<path d="M-835.58-686.83c8.33,0,15.11-6.78,15.11-15.11c0-3.49-1.2-6.69-3.19-9.25c0.33-0.1,0.65-0.26,0.95-0.48l28.19-21.85
			c1.61-1.25,3.62-1.93,5.65-1.93h105.42c1.66,0,3-1.34,3-3s-1.34-3-3-3h-105.42c-3.36,0-6.67,1.13-9.33,3.19l-28.19,21.85
			c-0.58,0.45-0.94,1.08-1.08,1.75c-2.34-1.5-5.12-2.38-8.1-2.38c-8.33,0-15.11,6.78-15.11,15.11S-843.91-686.83-835.58-686.83z
			 M-835.58-711.04c5.02,0,9.11,4.08,9.11,9.11s-4.08,9.11-9.11,9.11s-9.11-4.08-9.11-9.11S-840.6-711.04-835.58-711.04z"/>
		<path d="M-790.69-806.5c0,8.33,6.78,15.11,15.11,15.11c2.98,0,5.76-0.88,8.1-2.38c0.14,0.67,0.5,1.3,1.08,1.75l28.19,21.85
			c2.66,2.06,5.97,3.19,9.33,3.19h45.42c1.66,0,3-1.34,3-3s-1.34-3-3-3h-45.42c-2.04,0-4.04-0.69-5.65-1.93l-28.19-21.85
			c-0.29-0.23-0.61-0.38-0.95-0.48c1.99-2.56,3.19-5.77,3.19-9.25c0-8.33-6.78-15.11-15.11-15.11S-790.69-814.83-790.69-806.5z
			 M-784.69-806.5c0-5.02,4.08-9.11,9.11-9.11s9.11,4.08,9.11,9.11s-4.08,9.11-9.11,9.11S-784.69-801.48-784.69-806.5z"/>
		<path d="M-843.01-791.39c0,8.33,6.78,15.11,15.11,15.11c2.98,0,5.76-0.88,8.1-2.38c0.14,0.67,0.5,1.3,1.08,1.75l28.19,21.85
			c2.66,2.06,5.97,3.19,9.33,3.19h97.75c1.66,0,3-1.34,3-3s-1.34-3-3-3h-97.75c-2.04,0-4.04-0.69-5.65-1.93l-28.19-21.85
			c-0.29-0.23-0.61-0.38-0.95-0.48c1.99-2.56,3.19-5.77,3.19-9.25c0-8.33-6.78-15.11-15.11-15.11S-843.01-799.72-843.01-791.39z
			 M-837.01-791.39c0-5.02,4.08-9.11,9.11-9.11s9.11,4.08,9.11,9.11s-4.08,9.11-9.11,9.11S-837.01-786.37-837.01-791.39z"/>
	</g>
	<text transform="matrix(1 0 0 1 -1090.0293 -732.3452)" style="font-family:'Winter-Trendy'; font-size:37.1506px;">BUYERS’ HUNT</text>
</g>
<path d="M-1005.71-865.21v51.65c0,3.23,3.07,5.85,6.86,5.85h94.7c2.8,0,5.07-1.93,5.07-4.32v-53.71c0-2.45-2.33-4.43-5.2-4.43
	h-95.61C-1003.1-870.16-1005.71-867.94-1005.71-865.21z M-1019.04-875.8c0-3.16,3.03-5.72,6.61-5.72h120.06
	c3.65,0,6.61,2.55,6.61,5.72v74.78c0,2.58-2.45,4.67-5.48,4.67h-122.33c-3.03,0-5.48-2.09-5.48-4.67V-875.8z M-1035.77-792.33
	h166.75c1.96,0,3.13,2.19,2.04,3.83l-4.97,7.49c-0.45,0.69-1.22,1.1-2.04,1.1h-156.82c-0.82,0-1.59-0.41-2.04-1.1l-4.97-7.49
	C-1038.9-790.14-1037.73-792.33-1035.77-792.33z"/>
<g>
	<path d="M-899.86-680.06l12.26,12.26l-4.05,4.05l-12.26-12.26c-4.41,3.53-10,5.64-16.08,5.64c-14.23,0-25.77-11.55-25.77-25.77
		s11.55-25.77,25.77-25.77c14.23,0,25.77,11.55,25.77,25.77C-894.22-690.06-896.33-684.47-899.86-680.06z M-905.6-682.18
		c3.5-3.61,5.66-8.53,5.66-13.96c0-11.07-8.97-20.04-20.04-20.04c-11.07,0-20.04,8.97-20.04,20.04s8.97,20.04,20.04,20.04
		c5.43,0,10.35-2.15,13.96-5.66L-905.6-682.18z M-916.62-707.09c-1.99,0.9-3.37,2.9-3.37,5.22c0,3.16,2.56,5.73,5.73,5.73
		c2.32,0,4.32-1.38,5.22-3.37c0.33,1.07,0.5,2.2,0.5,3.37c0,6.33-5.13,11.45-11.45,11.45c-6.33,0-11.45-5.13-11.45-11.45
		c0-6.33,5.13-11.45,11.45-11.45C-918.82-707.6-917.69-707.42-916.62-707.09z"/>
	<path d="M-1010.57-696.14c0-14.23,11.55-25.77,25.77-25.77c14.23,0,25.77,11.55,25.77,25.77s-11.55,25.77-25.77,25.77
		c-6.08,0-11.67-2.11-16.08-5.64l-12.26,12.26l-4.05-4.05l12.26-12.26C-1008.46-684.47-1010.57-690.06-1010.57-696.14z
		 M-998.76-681.75c3.61,3.5,8.53,5.66,13.96,5.66c11.07,0,20.04-8.97,20.04-20.04s-8.97-20.04-20.04-20.04
		c-11.07,0-20.04,8.97-20.04,20.04c0,5.43,2.15,10.35,5.66,13.96L-998.76-681.75z M-984.8-707.6c6.33,0,11.45,5.13,11.45,11.45
		c0,6.33-5.13,11.45-11.45,11.45c-6.33,0-11.45-5.13-11.45-11.45c0-1.17,0.18-2.31,0.5-3.37c0.9,1.99,2.9,3.37,5.22,3.37
		c3.16,0,5.73-2.56,5.73-5.73c0-2.32-1.38-4.32-3.37-5.22C-987.11-707.42-985.97-707.6-984.8-707.6z"/>
</g>
<path class="st2" d="M-744.37-631.52h-414.59c-36.27,0-65.67-29.4-65.67-65.67v-135.3c0-36.27,29.4-65.67,65.67-65.67h414.59
	c36.27,0,65.67,29.4,65.67,65.67v135.3C-678.71-660.92-708.11-631.52-744.37-631.52z"/>
</svg>
