<?xml version="1.0" encoding="utf-8"?>
<!-- Generator: Adobe Illustrator 27.3.1, SVG Export Plug-In . SVG Version: 6.00 Build 0)  -->
<svg version="1.1" id="Layer_1" xmlns="http://www.w3.org/2000/svg" xmlns:xlink="http://www.w3.org/1999/xlink" x="0px" y="0px"
	 viewBox="0 0 970 489" style="enable-background:new 0 0 970 489;" xml:space="preserve">
<style type="text/css">
	.st0{fill:none;stroke:#000000;stroke-width:6;stroke-linecap:round;stroke-miterlimit:10;}
	.st1{fill:#FFFFFF;}
	.st2{fill:none;stroke:#000000;stroke-width:6;stroke-miterlimit:10;}
</style>
<path class="st0" d="M-777.7-529.8h45.4c2.7,0,5.3-0.9,7.5-2.6l28.2-21.8"/>
<circle class="st0" cx="-685.6" cy="-566.3" r="12.1"/>
<g>
	<g>
		<g>
			<g>
				<path class="st1" d="M175.6,147.4c-14.5,0-26.2,11.8-26.2,26.2c0,6.1,2.1,11.6,5.5,16.1c-0.6,0.2-1.1,0.5-1.6,0.8l-49,38
					c-2.8,2.2-6.3,3.4-9.8,3.4H15.6c-2.9,0-5.2,2.3-5.2,5.2s2.3,5.2,5.2,5.2h78.9c5.8,0,11.6-2,16.2-5.5l49-38c1-0.8,1.6-1.9,1.9-3
					c4.1,2.6,8.9,4.1,14.1,4.1c14.5,0,26.2-11.8,26.2-26.2S190.1,147.4,175.6,147.4z M175.6,189.5c-8.7,0-15.8-7.1-15.8-15.8
					s7.1-15.8,15.8-15.8s15.8,7.1,15.8,15.8C191.4,182.4,184.3,189.5,175.6,189.5z"/>
			</g>
			<g>
				<path class="st1" d="M279.8,173.6c-14.5,0-26.2,11.8-26.2,26.2c0,6.1,2.1,11.6,5.5,16.1c-0.6,0.2-1.1,0.5-1.6,0.8l-49,38
					c-2.8,2.2-6.3,3.4-9.8,3.4H15.6c-2.9,0-5.2,2.3-5.2,5.2s2.3,5.2,5.2,5.2h183.1c5.8,0,11.6-2,16.2-5.5l49-38c1-0.8,1.6-1.9,1.9-3
					c4.1,2.6,8.9,4.1,14.1,4.1c14.5,0,26.2-11.8,26.2-26.2S294.3,173.6,279.8,173.6z M279.8,215.7c-8.7,0-15.8-7.1-15.8-15.8
					s7.1-15.8,15.8-15.8s15.8,7.1,15.8,15.8S288.5,215.7,279.8,215.7z"/>
			</g>
			<g>
				<path class="st1" d="M201.9,381.5c0-14.5-11.8-26.2-26.2-26.2c-5.2,0-10,1.5-14.1,4.1c-0.2-1.2-0.9-2.2-1.9-3l-49-38
					c-4.6-3.6-10.4-5.5-16.2-5.5H15.6c-2.9,0-5.2,2.3-5.2,5.2s2.3,5.2,5.2,5.2h78.9c3.5,0,7,1.2,9.8,3.4l49,38
					c0.5,0.4,1.1,0.7,1.6,0.8c-3.5,4.5-5.5,10-5.5,16.1c0,14.5,11.8,26.2,26.2,26.2S201.9,396,201.9,381.5z M191.4,381.5
					c0,8.7-7.1,15.8-15.8,15.8s-15.8-7.1-15.8-15.8s7.1-15.8,15.8-15.8S191.4,372.8,191.4,381.5z"/>
			</g>
			<g>
				<path class="st1" d="M292.7,355.3c0-14.5-11.8-26.2-26.2-26.2c-5.2,0-10,1.5-14.1,4.1c-0.2-1.2-0.9-2.2-1.9-3l-49-38
					c-4.6-3.6-10.4-5.5-16.2-5.5H15.6c-2.9,0-5.2,2.3-5.2,5.2s2.3,5.2,5.2,5.2h169.8c3.5,0,7,1.2,9.8,3.4l49,38
					c0.5,0.4,1.1,0.7,1.6,0.8c-3.5,4.5-5.5,10-5.5,16.1c0,14.5,11.8,26.2,26.2,26.2S292.7,369.7,292.7,355.3z M282.3,355.3
					c0,8.7-7.1,15.8-15.8,15.8s-15.8-7.1-15.8-15.8c0-8.7,7.1-15.8,15.8-15.8S282.3,346.5,282.3,355.3z"/>
			</g>
		</g>
		<g>
			<g>
				<path class="st1" d="M789.9,407.7c14.5,0,26.2-11.8,26.2-26.2c0-6.1-2.1-11.6-5.5-16.1c0.6-0.2,1.1-0.5,1.6-0.8l49-38
					c2.8-2.2,6.3-3.4,9.8-3.4h78.9c2.9,0,5.2-2.3,5.2-5.2s-2.3-5.2-5.2-5.2H871c-5.8,0-11.6,2-16.2,5.5l-49,38c-1,0.8-1.6,1.9-1.9,3
					c-4.1-2.6-8.9-4.1-14.1-4.1c-14.5,0-26.2,11.8-26.2,26.2C763.6,396,775.4,407.7,789.9,407.7z M789.9,365.7
					c8.7,0,15.8,7.1,15.8,15.8s-7.1,15.8-15.8,15.8s-15.8-7.1-15.8-15.8S781.1,365.7,789.9,365.7z"/>
			</g>
			<g>
				<path class="st1" d="M685.6,381.5c14.5,0,26.2-11.8,26.2-26.2c0-6.1-2.1-11.6-5.5-16.1c0.6-0.2,1.1-0.5,1.6-0.8l49-38
					c2.8-2.2,6.3-3.4,9.8-3.4h183.1c2.9,0,5.2-2.3,5.2-5.2s-2.3-5.2-5.2-5.2H766.8c-5.8,0-11.6,2-16.2,5.5l-49,38
					c-1,0.8-1.6,1.9-1.9,3c-4.1-2.6-8.9-4.1-14.1-4.1c-14.5,0-26.2,11.8-26.2,26.2C659.4,369.7,671.2,381.5,685.6,381.5z
					 M685.6,339.4c8.7,0,15.8,7.1,15.8,15.8c0,8.7-7.1,15.8-15.8,15.8s-15.8-7.1-15.8-15.8C669.8,346.5,676.9,339.4,685.6,339.4z"/>
			</g>
			<g>
				<path class="st1" d="M763.6,173.6c0,14.5,11.8,26.2,26.2,26.2c5.2,0,10-1.5,14.1-4.1c0.2,1.2,0.9,2.2,1.9,3l49,38
					c4.6,3.6,10.4,5.5,16.2,5.5h78.9c2.9,0,5.2-2.3,5.2-5.2s-2.3-5.2-5.2-5.2H871c-3.5,0-7-1.2-9.8-3.4l-49-38
					c-0.5-0.4-1.1-0.7-1.6-0.8c3.5-4.5,5.5-10,5.5-16.1c0-14.5-11.8-26.2-26.2-26.2C775.4,147.4,763.6,159.2,763.6,173.6z
					 M774,173.6c0-8.7,7.1-15.8,15.8-15.8s15.8,7.1,15.8,15.8s-7.1,15.8-15.8,15.8S774,182.4,774,173.6z"/>
			</g>
			<g>
				<path class="st1" d="M672.7,199.9c0,14.5,11.8,26.2,26.2,26.2c5.2,0,10-1.5,14.1-4.1c0.2,1.2,0.9,2.2,1.9,3l49,37.9
					c4.6,3.6,10.4,5.5,16.2,5.5h169.8c2.9,0,5.2-2.3,5.2-5.2s-2.3-5.2-5.2-5.2H780.1c-3.5,0-7-1.2-9.8-3.4l-49-38
					c-0.5-0.4-1.1-0.7-1.6-0.8c3.5-4.5,5.5-10,5.5-16.1c0-14.5-11.8-26.2-26.2-26.2C684.5,173.6,672.7,185.4,672.7,199.9z
					 M683.2,199.9c0-8.7,7.1-15.8,15.8-15.8c8.7,0,15.8,7.1,15.8,15.8s-7.1,15.8-15.8,15.8C690.2,215.7,683.2,208.6,683.2,199.9z"/>
			</g>
		</g>
		<g>
			<path class="st1" d="M249.7,303.7c-1.1-0.5-2.1-1.3-2.8-2.4c-2.4-3.6-1.4-9.1,2.1-11.8c1-0.8,2.3-1.3,3.5-1.4
				c0.2-3.4,0.2-6.7,0.1-10c-0.1-2.3-0.1-4.5-0.4-6.7c-0.1-0.8-0.2-1.7-0.5-2.5c-0.1-0.5-0.4-0.8-0.8-1.1c-0.8-0.6-1.7-0.8-2.6-1.2
				c-1-0.7-1.8-1.6-2.3-2.7c-1.6-3.7,0.3-8.5,3.9-9.9c0.7-0.3,1.5-0.3,2.3-0.4c1.9,0,13-0.5,14.9-0.6c3.1-0.2,6.5,0.1,9.4,1.2
				c1.7,0.6,3.3,1.7,4.6,3c1.2,1.4,2.1,3.1,2.4,4.8c0.5,2.5,0,5.2-0.9,7.5c-1,2.4-2.8,4.3-4.7,6c7.4,3.2,12.1,11.9,9.1,19.4
				c-0.7,2-2.1,3.8-3.7,5.2c-2.4,1.9-5.4,3.1-8.5,3.4c-3.8,0.4-7.6-0.5-11.4-0.4c-3.2,0.1-6.3,1.2-9.5,1.2
				C252.5,304.4,251,304.3,249.7,303.7z M269.2,289.7c0.6-0.5,1.2-1.2,1.4-1.9c0.4-1.7-1.4-3.4-3.1-3.8c-0.6-0.2-2.5-0.4-3-0.1
				c-0.6,0.3-0.5,1.7-0.5,2.4c0,1.5,0.1,3.2-0.1,4.7C265.7,291.1,267.8,290.8,269.2,289.7z M264.3,272.2c1.7-0.1,5.2-0.9,5.9-2.5
				c0.7-1.5-0.5-3.1-2-3.7c-1.7-0.8-4.1-0.6-4.2,1.4C263.9,268.9,264,270.6,264.3,272.2z"/>
			<path class="st1" d="M304.1,303.9c-2.4-0.8-4.8-2.1-6.6-3.9c-1.9-1.8-2.8-4.6-3.1-7.2c-0.5-4.4,1-8.7,1.2-13.1
				c0.1-2.6-0.1-5.4-1.1-7.7c-0.8-1.9-2.5-3.5-3.3-5.5c-1.6-4.1,1.4-9.2,5.2-11.4c5.2-3,12.1-0.3,12.6,5.6c0.2,2.1-0.1,4.3-0.5,6.5
				c-0.7,3.5-1.7,6.9-2.4,10.4c-0.3,2-0.6,4-0.5,6c0.2,3,2.7,5.5,5.7,5.2c1.4-0.1,2.7-1,3.5-2.1c1-1.3,1.5-2.9,1.7-4.5
				c0.4-2.4,0-4.8-0.6-7.2c-0.8-3.7-2.2-7.2-2.6-11c-0.1-1.5-0.2-3,0.1-4.5c0.4-1.4,1.1-2.5,2.1-3.4c1.2-1,2.7-1.7,4.2-1.9
				c2.4-0.4,4.9,0.2,6.9,1.6c1.5,1,2.8,2.6,3.7,4.3c0.9,1.7,1.4,3.9,0.8,5.8c-0.6,2.3-2.5,4-3.5,6.1c-1.1,2.4-1.3,5.1-1.1,7.7
				c0.3,4.3,1.6,8.7,1.2,13c-0.2,2.5-1.2,5.2-2.8,7c-1.5,1.8-3.7,3.1-5.9,3.9C314.5,305.5,308.9,305.5,304.1,303.9z"/>
			<path class="st1" d="M350.9,303.3c-1.3-0.5-2.6-1.3-3.4-2.5c-0.8-1.3-1-3-0.9-4.5c0.2-3.8,1.4-7.5,1.4-11.2
				c0-0.8-0.1-1.6-0.4-2.3c-0.4-1-1.1-1.7-1.8-2.5c-1.3-1.2-2.6-2.3-4.1-3.4c-1.6-1.2-3.4-2.2-4.8-3.5c-1.1-1-2.1-2.3-2.6-3.7
				c-0.6-1.6-0.6-3.5-0.1-5.2c0.8-2.8,2.3-5.4,4.5-7.3c1.5-1.3,3.3-2.5,5.3-2.6c1.2-0.1,2.3,0.3,3.4,0.9c0.6,0.3,2.2,2,2.6,2.6
				c0.3,0.5,1.4,3.2,1.5,3.7c0.4,1.2,2.1,8.2,2.5,9.4c0.1,0.1,0.3-0.1,0.5-0.1c0.5-0.3,1-0.7,1.4-1.2c0.5-0.7,0.7-1.5,1-2.3
				c0.1-0.6,0.8-4.5,0.9-5.1c0.5-1.7,1-3.5,2-5.1c0.9-1.3,2.1-2.5,3.6-2.9c3.4-1.2,7.4,0.1,9.4,3c0.8,1.2,1.4,2.5,1.4,3.9
				c0,1.7-0.3,3.4-1,4.9c-1.7,4.1-5.1,7.2-7.7,10.8c-1.4,1.9-2.8,4.1-3,6.5c-0.2,2.3,0.6,4.4,1.2,6.6c0.4,1.9,0.6,4,0.6,6
				c-0.1,1.4-0.1,2.8-0.8,4c-0.5,0.9-1.4,1.6-2.2,2.2c-1.1,0.7-2.3,1.3-3.5,1.5C355.2,304.4,352.9,304,350.9,303.3z"/>
			<path class="st1" d="M392.7,302.8c-2.6-0.1-5.4,0.3-7.9-0.3c-1.5-0.4-3-1.1-4.1-2.1c-1.4-1.2-2.2-3-2.6-4.8
				c-0.5-2.3,0.8-12.6,1-14.9c0.1-2.5-0.1-5.1-0.4-7.6c0-0.5-0.5-2.5-0.6-2.8c-0.6-2.5-1.2-5.1-0.8-7.7c0.3-1.5,1-3.2,2.2-4.3
				c1.1-1,2.7-1.5,4.2-1.8c3-0.5,5.9,0.6,8.9,1c2.6,0.4,5.2,0.3,7.8-0.3c2.5-0.6,4.6-1.9,7.2-2.1c1-0.1,2,0.1,2.8,0.5
				c1,0.5,1.9,1.3,2.4,2.3c0.7,1.5,0.9,3.4,0.8,5.1c-0.1,1.2-0.3,2.4-1,3.4c-0.7,1-1.7,1.9-2.8,2.5c-1.9,1-4.4,1.1-6.4,0.5
				c-2.9-0.8-5.6-2.2-8.5-2.9c-0.8-0.3-1.9-0.5-2.6-0.1c-2.8,1.4-2.5,5.9,0.4,7c0.9,0.3,1.9,0.3,2.9,0.1c1.7-0.4,3.5-1,5.2-0.8
				c1.7,0.1,3.5,0.9,4.5,2.3c1.8,2.6,1.2,7.1-0.9,9.3c-0.3,0.4-0.8,0.7-1.3,0.9c-1.2,0.4-2.5,0.4-3.8,0.3c-0.3,0-2-0.1-2.3-0.2
				c-1.2-0.2-2.4-0.5-3.6-0.7c-0.3,0-1.2-0.2-1.5,0c-0.5,0.3-0.6,1.6-0.6,2.3c0.1,0.9,0.6,3.1,1.3,3.6c0.9,0.7,2.3,0.5,3.4,0.3
				c2.6-0.6,5-1.7,7.3-2.9c3.5-1.7,7.8-0.6,9.2,3c0.5,1.4,0.8,3,0.5,4.6c-0.3,1.4-1,2.9-1.9,4c-1.4,1.5-3.3,2.7-5.2,3.2
				C401.6,303.8,397.1,303,392.7,302.8z"/>
			<path class="st1" d="M426.3,303.6c-2.2-0.1-4.6-0.8-6.2-2.4c-1.2-1.2-1.7-2.9-1.7-4.5c0.1-9.1,2.8-18.3,1.4-27.3
				c-0.3-2.2-0.5-4.5-0.1-6.7c0.6-3,2.3-5.3,5-6.8c2.7-1.5,5.9-2,9-2.3c4.9-0.3,10,0,14.8,1.1c1.9,0.5,3.9,1.2,5.4,2.4
				c2.2,1.6,4,4.1,4.7,6.7c0.6,2.6,0.3,5.7-1.1,8s-3.9,4.1-6.5,5c-1.4,0.6-4.1,1.7-4.2,3.3c0,0.5,0.3,0.9,0.6,1.3
				c2.3,2.8,5.9,4.5,8.8,6.9c1.4,1.1,2.8,2.4,3.4,4.1c1.2,3.2-1,7.5-4,9.2c-2.5,1.5-5.7,1.5-8.3,0.1c-1.6-1-2.9-2.6-3.9-4.2
				c-1.5-2.5-2.5-5.3-3.4-8.1c-0.2-0.7-0.5-1.4-1-2c-0.8-1-2.2-1.9-3.3-1.2c-1,0.7-1.5,2.2-1.7,3.5c-0.3,2.5,1.5,5,1.5,7.5
				C435.5,301.7,430.7,303.8,426.3,303.6z M434.6,274.7c2.2-0.3,4.8-1.2,6-3c2-3.2,0.1-7.7-3.6-7.1c-0.4,0.1-1.6,0.5-1.9,0.8
				C433.8,266.9,434.6,272.8,434.6,274.7z"/>
			<path class="st1" d="M475.1,303.4c-2.2-0.6-4.3-1.6-6-3.2c-2.3-2.1-3.2-5.6-2.3-8.4c0.5-1.2,1.2-2.3,2.3-3
				c2.3-1.7,6.6-2.5,8.9-0.8c1.4,1,2,2.9,3.5,3.7c1.8,1,3.9-0.7,3-2.6c-0.3-0.7-1-1-1.6-1.4c-4-1.9-8.4-3-12.2-5.4
				c-2.1-1.3-4.1-3-5.3-5c-1.2-1.9-1.8-4.1-1.9-6.3c-0.1-2.8,0.8-5.7,2.2-8.1c2.1-3.5,5.4-6.3,9.4-7.6c4.8-1.7,10.5-1.4,15.1,0.6
				c1.7,0.8,3.3,1.8,4.6,3.1c3,2.9,4.5,7.1,4.2,11.2c-0.2,2-1,4.2-2.5,5.5c-3,2.7-9.2,1.9-12.5-0.3c-1-0.7-1.9-1.7-2.2-2.8
				c-0.3-1,0.1-2.2,0.5-3.2c0.6-1.4,2.2-3.9,1.2-4.9c-0.8-0.9-2.3-0.7-3.2,0.1c-1.1,1-1.8,2.5-1.7,3.9c0,1.4,0.5,2.9,1.2,4.1
				c0.7,1.3,1.8,2.4,3,3.3c3.4,2.5,7.7,3.5,10.9,6.2c1.9,1.6,3.4,4,3.9,6.5c0.6,3-0.1,6.5-1.9,9c-1.7,2.3-4.4,3.9-7.1,4.8
				C484.3,304.2,479.5,304.5,475.1,303.4z"/>
			<path class="st1" d="M505,268.5c-0.5-0.3-0.9-0.8-1.1-1.4c-0.2-0.5-0.2-1.1-0.1-1.6c0.3-2-0.1-4-0.5-5.9c-0.1-0.5-0.2-1-0.2-1.4
				c0.3-3,3.6-4.2,6.5-3.4c1.2,0.4,2.5,1.5,2.7,2.8c0.4,2.4,0.2,5-0.3,7.4c-0.3,1.3-0.6,2.8-1.6,3.6
				C509.1,269.8,506.4,269.5,505,268.5z"/>
			<path class="st1" d="M534.3,298.4c-0.1-1.1,0-2.1,0.3-3.2c1.2-4.7,2.2-9.5,2.2-14.3c-0.1-6-3.6-11.5-3.9-17.5
				c-0.1-1.6,0.1-3.3,0.8-4.7c0.6-1.3,1.6-2.5,2.8-3.2c2-1.2,4.5-1.6,6.8-1.5c1.4,0.1,2.7,0.3,3.9,1c0.9,0.5,1.8,1.3,2.3,2.3
				c0.4,0.8,0.5,1.7,0.5,2.5c0,4.1-1.2,8.1-0.8,12.1c0.1,0.5,0.2,1.1,0.5,1.5c0.5,0.7,1.4,1.2,2.3,1.4c3,0.7,6.2-1.3,6.1-4.5
				c-0.2-2.5-1.2-5-1.6-7.5c-0.3-1.7-0.3-3.5,0.6-5c1.2-2.2,3.8-3.7,6.3-4.2c4.1-0.8,9.3,0.7,10.4,4.7c0.5,1.6,0.5,3.4,0.3,5.1
				c-0.2,2.1-0.7,4.2-1.4,6.2c-1,3-2.1,5.9-2.5,9.1c-0.4,3.2,0.1,6.5,0.9,9.5c0.2,0.8,1.5,5.7,1.7,6.6c0.3,1.6,0.3,3.4-0.4,5
				c-0.5,1-1.2,2-2.2,2.7c-2.7,1.7-8.1,1.7-10.6-0.3c-1.2-0.9-2-2.3-2.5-3.7c-0.7-2.1-1-4.3-0.8-6.5c0.1-1.7,0.3-6.8-0.7-8.1
				c-0.7-1-2.7-0.8-3.8-0.3c-1.2,0.6-1.1,3.1-1.2,4.4c-0.1,2.3,0.3,4.5,0,6.7c-0.3,2.5-0.9,5-2.5,6.8c-0.8,1-2.1,1.7-3.4,2.1
				C540.2,304.5,535,302.8,534.3,298.4z"/>
			<path class="st1" d="M591.3,303.9c-2.4-0.8-4.8-2.1-6.6-3.9c-1.9-1.8-2.8-4.6-3.1-7.2c-0.5-4.4,1-8.7,1.2-13.1
				c0.1-2.6-0.1-5.4-1.1-7.7c-0.8-1.9-2.5-3.5-3.3-5.5c-1.6-4.1,1.4-9.2,5.2-11.4c5.2-3,12.1-0.3,12.6,5.6c0.2,2.1-0.1,4.3-0.5,6.5
				c-0.7,3.5-1.7,6.9-2.4,10.4c-0.3,2-0.6,4-0.5,6c0.2,3,2.7,5.5,5.7,5.2c1.4-0.1,2.7-1,3.5-2.1c1-1.3,1.5-2.9,1.7-4.5
				c0.4-2.4,0-4.8-0.6-7.2c-0.8-3.7-2.2-7.2-2.7-11c-0.1-1.5-0.2-3,0.1-4.5c0.4-1.4,1.1-2.5,2.1-3.4c1.2-1,2.7-1.7,4.2-1.9
				c2.4-0.4,4.9,0.2,6.9,1.6c1.5,1,2.8,2.6,3.7,4.3c0.9,1.7,1.4,3.9,0.8,5.8c-0.6,2.3-2.5,4-3.5,6.1c-1.1,2.4-1.3,5.1-1.1,7.7
				c0.3,4.3,1.6,8.7,1.2,13c-0.2,2.5-1.2,5.2-2.8,7c-1.5,1.8-3.7,3.1-5.9,3.9C601.7,305.5,596.1,305.5,591.3,303.9z"/>
			<path class="st1" d="M627.3,302.8c-1.1-0.5-2.2-1.4-2.9-2.4c-0.6-0.8-0.9-1.8-1-2.8c-0.2-1.9,0.1-3.8,0.4-5.7
				c1.2-9-0.7-18.3,0.3-27.4c0.1-1.5,0.5-3,1.2-4.4c0.6-1,1.7-1.9,2.7-2.6c3.9-2.3,9.4-1.7,11.9,1.9c0.6,0.8,1,1.7,1.4,2.6
				c1.9,4.7,2.3,9.9,4.4,14.5c0.4,0.9,1.5,3.2,2.5,3.5c0.6,0.1,1-0.5,1.2-1.2c0.5-1.8,0.1-3.8-0.3-5.6c-0.8-3.4-1.8-6.8-2.1-10.2
				c-0.1-1.8,0.4-3.5,1.4-5c1-1.4,2.6-2.5,4.2-2.9c2.2-0.7,4.7-0.6,6.8,0.4c1,0.5,2,1.2,2.7,2.2c0.8,1.2,1.3,2.6,1.5,4.1
				c0.4,2.7-0.1,5.4-0.5,8.1c-0.5,3.3-1,6.7-1,10c0.1,3.7,0.8,7.5,0.7,11.2c-0.1,2-0.2,4-0.7,5.9c-0.4,1.5-1.2,3.2-2.4,4.2
				c-3.1,2.5-8.1,1.7-10.9-1.1c-0.7-0.7-3-3.5-3.3-4.5c-0.3-1.1-2.8-7.8-3.2-8.9c-0.8-2.3-1.2-4.8-2.3-7c-0.3-0.6-1.1-1.9-1.8-1.9
				c-0.6-0.1-1,0.7-1.1,1.2c-0.6,1.9-0.5,3.9-0.2,5.9c0.6,3.9,2.1,7.6,2,11.5c-0.1,1.5-0.3,3.2-1.2,4.5c-0.7,1-1.9,1.7-3,2.1
				C632.3,303.9,629.5,303.8,627.3,302.8z"/>
			<path class="st1" d="M685.2,303.8c-1.3,0-2.7-0.2-3.8-0.8c-0.8-0.4-1.6-1.1-2.1-1.9c-0.8-1.4-1.1-3.2-1.1-4.9
				c-0.1-3.6,2.6-22.1,3.2-25.8c0.1-0.8,0.2-1.7,0.2-2.6c-0.1-1-0.4-2.8-1.4-3c-0.5-0.1-1.2,0.1-1.5,0.5c-0.6,0.7-2.7,5.4-3.2,6.1
				c-1.5,2.1-4.7,2.2-6.5,0.3c-0.8-0.9-1.4-2.1-1.6-3.4c-0.3-2.1-0.4-4.3,0.1-6.5c0.4-1.7,1.2-3.4,2.4-4.8c1-1.2,2.4-2,3.8-2.5
				c2.5-0.9,13-0.3,15.7-0.2c4.1,0.2,8.5-0.5,12.4,0.7c1.5,0.5,3,1.5,3.9,2.8c1.4,2.1,1.8,4.9,1.5,7.4c-0.5,3.7-2.1,8.1-5.9,7.6
				c-0.7-0.1-1.3-0.5-1.8-0.9c-1.5-1.4-2.5-3.2-3.9-4.7c-0.5-0.6-1.8-2.1-2.5-2.2c-0.9-0.1-1.3,1-1.3,1.9c0.1,2.8,2.3,17.5,2.6,20.2
				c0.4,3,0.8,6,1,9c0.1,1.7,0,3.6-1,5c-0.6,0.9-1.7,1.5-2.8,1.9C689.6,303.7,687.4,303.8,685.2,303.8z"/>
		</g>
	</g>
	<g>
		<path class="st1" d="M390.1,71.7v89.7c0,5.6,5.3,10.2,11.9,10.2h164.5c4.9,0,8.8-3.4,8.8-7.5V70.7c0-4.2-4-7.7-9-7.7H400.2
			C394.6,63,390.1,66.9,390.1,71.7z M367,53.3c0-5.5,5.3-9.9,11.5-9.9H587c6.3,0,11.5,4.4,11.5,9.9v129.9c0,4.5-4.3,8.1-9.5,8.1
			H376.5c-5.2,0-9.5-3.6-9.5-8.1L367,53.3L367,53.3z M337.9,198.2h289.6c3.4,0,5.4,3.8,3.5,6.6l-8.6,13c-0.8,1.2-2.1,1.9-3.5,1.9
			H346.5c-1.4,0-2.8-0.7-3.5-1.9l-8.6-13C332.5,202,334.5,198.2,337.9,198.2z"/>
	</g>
	<g>
		<g>
			<path class="st1" d="M574,393.3l21.3,21.3l-7,7L567,400.3c-7.7,6.1-17.4,9.8-27.9,9.8c-24.7,0-44.8-20-44.8-44.8
				s20-44.8,44.8-44.8s44.8,20,44.8,44.8C583.8,375.9,580.1,385.6,574,393.3z M564,389.6c6.1-6.3,9.8-14.8,9.8-24.2
				c0-19.2-15.6-34.8-34.8-34.8s-34.8,15.6-34.8,34.8s15.6,34.8,34.8,34.8c9.4,0,18-3.7,24.2-9.8L564,389.6z M544.9,346.3
				c-3.5,1.6-5.9,5-5.9,9.1c0,5.5,4.5,10,10,10c4,0,7.5-2.4,9.1-5.9c0.6,1.8,0.9,3.8,0.9,5.9c0,11-8.9,19.9-19.9,19.9
				c-11,0-19.9-8.9-19.9-19.9c0-11,8.9-19.9,19.9-19.9C541.1,345.4,543,345.7,544.9,346.3z"/>
		</g>
		<g>
			<path class="st1" d="M381.7,365.3c0-24.7,20-44.8,44.8-44.8c24.7,0,44.8,20,44.8,44.8s-20,44.8-44.8,44.8
				c-10.6,0-20.3-3.7-27.9-9.8l-21.3,21.3l-7-7l21.3-21.3C385.4,385.6,381.7,375.9,381.7,365.3z M402.2,390.3
				c6.3,6.1,14.8,9.8,24.2,9.8c19.2,0,34.8-15.6,34.8-34.8s-15.6-34.8-34.8-34.8c-19.2,0-34.8,15.6-34.8,34.8c0,9.4,3.7,18,9.8,24.2
				L402.2,390.3z M426.5,345.4c11,0,19.9,8.9,19.9,19.9c0,11-8.9,19.9-19.9,19.9s-19.9-8.9-19.9-19.9c0-2,0.3-4,0.9-5.9
				c1.6,3.5,5,5.9,9.1,5.9c5.5,0,10-4.5,10-10c0-4-2.4-7.5-5.9-9.1C422.4,345.7,424.4,345.4,426.5,345.4z"/>
		</g>
	</g>
	<g>
		<path class="st1" d="M844.1,482.8H123.9c-65.8,0-119.3-53.5-119.3-119.3v-235C4.7,62.7,58.2,9.2,123.9,9.2h720.1
			c65.8,0,119.3,53.5,119.3,119.3v235C963.3,429.3,909.8,482.8,844.1,482.8z M123.9,19.6c-60,0-108.8,48.8-108.8,108.9v235
			c0,60,48.8,108.8,108.8,108.8h720.1c60,0,108.8-48.8,108.8-108.8v-235c0-60-48.8-108.9-108.8-108.9L123.9,19.6L123.9,19.6z"/>
	</g>
</g>
<g>
	<g>
		<path d="M-1145.2-1075.6c-8.3,0-15.1,6.8-15.1,15.1c0,3.5,1.2,6.7,3.2,9.2c-0.3,0.1-0.7,0.3-0.9,0.5l-28.2,21.8
			c-1.6,1.2-3.6,1.9-5.7,1.9h-45.4c-1.7,0-3,1.3-3,3s1.3,3,3,3h45.4c3.4,0,6.7-1.1,9.3-3.2l28.2-21.8c0.6-0.4,0.9-1.1,1.1-1.8
			c2.3,1.5,5.1,2.4,8.1,2.4c8.3,0,15.1-6.8,15.1-15.1S-1136.9-1075.6-1145.2-1075.6z M-1145.2-1051.4c-5,0-9.1-4.1-9.1-9.1
			s4.1-9.1,9.1-9.1s9.1,4.1,9.1,9.1S-1140.2-1051.4-1145.2-1051.4z"/>
		<path d="M-1085.2-1060.5c-8.3,0-15.1,6.8-15.1,15.1c0,3.5,1.2,6.7,3.2,9.2c-0.3,0.1-0.7,0.3-0.9,0.5l-28.2,21.8
			c-1.6,1.2-3.6,1.9-5.7,1.9h-105.4c-1.7,0-3,1.3-3,3s1.3,3,3,3h105.4c3.4,0,6.7-1.1,9.3-3.2l28.2-21.8c0.6-0.5,0.9-1.1,1.1-1.8
			c2.3,1.5,5.1,2.4,8.1,2.4c8.3,0,15.1-6.8,15.1-15.1S-1076.9-1060.5-1085.2-1060.5z M-1085.2-1036.3c-5,0-9.1-4.1-9.1-9.1
			c0-5,4.1-9.1,9.1-9.1s9.1,4.1,9.1,9.1C-1076.1-1040.4-1080.2-1036.3-1085.2-1036.3z"/>
		<path d="M-1130.1-940.8c0-8.3-6.8-15.1-15.1-15.1c-3,0-5.8,0.9-8.1,2.4c-0.1-0.7-0.5-1.3-1.1-1.8l-28.2-21.8
			c-2.7-2.1-6-3.2-9.3-3.2h-45.4c-1.7,0-3,1.3-3,3s1.3,3,3,3h45.4c2,0,4,0.7,5.7,1.9l28.2,21.8c0.3,0.2,0.6,0.4,0.9,0.5
			c-2,2.6-3.2,5.8-3.2,9.2c0,8.3,6.8,15.1,15.1,15.1S-1130.1-932.5-1130.1-940.8z M-1136.1-940.8c0,5-4.1,9.1-9.1,9.1
			s-9.1-4.1-9.1-9.1s4.1-9.1,9.1-9.1S-1136.1-945.8-1136.1-940.8z"/>
		<path d="M-1077.8-955.9c0-8.3-6.8-15.1-15.1-15.1c-3,0-5.8,0.9-8.1,2.4c-0.1-0.7-0.5-1.3-1.1-1.8l-28.2-21.8
			c-2.7-2.1-6-3.2-9.3-3.2h-97.8c-1.7,0-3,1.3-3,3s1.3,3,3,3h97.8c2,0,4,0.7,5.7,1.9l28.2,21.8c0.3,0.2,0.6,0.4,0.9,0.5
			c-2,2.6-3.2,5.8-3.2,9.2c0,8.3,6.8,15.1,15.1,15.1S-1077.8-947.6-1077.8-955.9z M-1083.8-955.9c0,5-4.1,9.1-9.1,9.1
			s-9.1-4.1-9.1-9.1s4.1-9.1,9.1-9.1S-1083.8-961-1083.8-955.9z"/>
	</g>
	<g>
		<path d="M-791.6-925.7c8.3,0,15.1-6.8,15.1-15.1c0-3.5-1.2-6.7-3.2-9.2c0.3-0.1,0.7-0.3,1-0.5l28.2-21.8c1.6-1.2,3.6-1.9,5.7-1.9
			h45.4c1.7,0,3-1.3,3-3s-1.3-3-3-3h-45.4c-3.4,0-6.7,1.1-9.3,3.2l-28.2,21.8c-0.6,0.5-0.9,1.1-1.1,1.8c-2.3-1.5-5.1-2.4-8.1-2.4
			c-8.3,0-15.1,6.8-15.1,15.1S-799.9-925.7-791.6-925.7z M-791.6-949.9c5,0,9.1,4.1,9.1,9.1s-4.1,9.1-9.1,9.1s-9.1-4.1-9.1-9.1
			S-796.6-949.9-791.6-949.9z"/>
		<path d="M-851.6-940.8c8.3,0,15.1-6.8,15.1-15.1c0-3.5-1.2-6.7-3.2-9.2c0.3-0.1,0.7-0.3,1-0.5l28.2-21.8c1.6-1.2,3.6-1.9,5.7-1.9
			h105.4c1.7,0,3-1.3,3-3s-1.3-3-3-3h-105.4c-3.4,0-6.7,1.1-9.3,3.2l-28.2,21.8c-0.6,0.5-0.9,1.1-1.1,1.8c-2.3-1.5-5.1-2.4-8.1-2.4
			c-8.3,0-15.1,6.8-15.1,15.1S-859.9-940.8-851.6-940.8z M-851.6-965c5,0,9.1,4.1,9.1,9.1s-4.1,9.1-9.1,9.1s-9.1-4.1-9.1-9.1
			S-856.6-965-851.6-965z"/>
		<path d="M-806.7-1060.5c0,8.3,6.8,15.1,15.1,15.1c3,0,5.8-0.9,8.1-2.4c0.1,0.7,0.5,1.3,1.1,1.8l28.2,21.8c2.7,2.1,6,3.2,9.3,3.2
			h45.4c1.7,0,3-1.3,3-3s-1.3-3-3-3h-45.4c-2,0-4-0.7-5.7-1.9l-28.2-21.8c-0.3-0.2-0.6-0.4-1-0.5c2-2.6,3.2-5.8,3.2-9.2
			c0-8.3-6.8-15.1-15.1-15.1S-806.7-1068.8-806.7-1060.5z M-800.7-1060.5c0-5,4.1-9.1,9.1-9.1s9.1,4.1,9.1,9.1s-4.1,9.1-9.1,9.1
			S-800.7-1055.5-800.7-1060.5z"/>
		<path d="M-859-1045.4c0,8.3,6.8,15.1,15.1,15.1c3,0,5.8-0.9,8.1-2.4c0.1,0.7,0.5,1.3,1.1,1.8l28.2,21.8c2.7,2.1,6,3.2,9.3,3.2
			h97.8c1.7,0,3-1.3,3-3s-1.3-3-3-3h-97.8c-2,0-4-0.7-5.7-1.9l-28.2-21.8c-0.3-0.2-0.6-0.4-1-0.5c2-2.6,3.2-5.8,3.2-9.2
			c0-8.3-6.8-15.1-15.1-15.1S-859-1053.7-859-1045.4z M-853-1045.4c0-5,4.1-9.1,9.1-9.1s9.1,4.1,9.1,9.1s-4.1,9.1-9.1,9.1
			S-853-1040.4-853-1045.4z"/>
	</g>
	<text transform="matrix(1 0 0 1 -1106.0293 -986.3452)" style="font-family:'Winter-Trendy'; font-size:37.1506px;">BUYERS’ HUNT</text>
</g>
<path d="M-1021.7-1119.2v51.6c0,3.2,3.1,5.9,6.9,5.9h94.7c2.8,0,5.1-1.9,5.1-4.3v-53.7c0-2.5-2.3-4.4-5.2-4.4h-95.6
	C-1019.1-1124.2-1021.7-1121.9-1021.7-1119.2z M-1035-1129.8c0-3.2,3-5.7,6.6-5.7h120.1c3.7,0,6.6,2.6,6.6,5.7v74.8
	c0,2.6-2.5,4.7-5.5,4.7h-122.3c-3,0-5.5-2.1-5.5-4.7L-1035-1129.8L-1035-1129.8z M-1051.8-1046.3H-885c2,0,3.1,2.2,2,3.8l-5,7.5
	c-0.5,0.7-1.2,1.1-2,1.1h-156.8c-0.8,0-1.6-0.4-2-1.1l-5-7.5C-1054.9-1044.1-1053.7-1046.3-1051.8-1046.3z"/>
<g>
	<path d="M-915.9-934.1l12.3,12.3l-4,4l-12.3-12.3c-4.4,3.5-10,5.6-16.1,5.6c-14.2,0-25.8-11.5-25.8-25.8s11.5-25.8,25.8-25.8
		c14.2,0,25.8,11.5,25.8,25.8C-910.2-944.1-912.3-938.5-915.9-934.1z M-921.6-936.2c3.5-3.6,5.7-8.5,5.7-14c0-11.1-9-20-20-20
		s-20,9-20,20s9,20,20,20c5.4,0,10.3-2.2,14-5.7L-921.6-936.2z M-932.6-961.1c-2,0.9-3.4,2.9-3.4,5.2c0,3.2,2.6,5.7,5.7,5.7
		c2.3,0,4.3-1.4,5.2-3.4c0.3,1.1,0.5,2.2,0.5,3.4c0,6.3-5.1,11.5-11.5,11.5c-6.3,0-11.5-5.1-11.5-11.5c0-6.3,5.1-11.5,11.5-11.5
		C-934.8-961.6-933.7-961.4-932.6-961.1z"/>
	<path d="M-1026.6-950.1c0-14.2,11.6-25.8,25.8-25.8c14.2,0,25.8,11.5,25.8,25.8s-11.5,25.8-25.8,25.8c-6.1,0-11.7-2.1-16.1-5.6
		l-12.3,12.3l-4-4l12.3-12.3C-1024.5-938.5-1026.6-944.1-1026.6-950.1z M-1014.8-935.8c3.6,3.5,8.5,5.7,14,5.7c11.1,0,20-9,20-20
		s-9-20-20-20s-20,9-20,20c0,5.4,2.2,10.3,5.7,14L-1014.8-935.8z M-1000.8-961.6c6.3,0,11.5,5.1,11.5,11.5c0,6.3-5.1,11.5-11.5,11.5
		c-6.3,0-11.5-5.1-11.5-11.5c0-1.2,0.2-2.3,0.5-3.4c0.9,2,2.9,3.4,5.2,3.4c3.2,0,5.7-2.6,5.7-5.7c0-2.3-1.4-4.3-3.4-5.2
		C-1003.1-961.4-1002-961.6-1000.8-961.6z"/>
</g>
<path class="st2" d="M-760.4-885.5H-1175c-36.3,0-65.7-29.4-65.7-65.7v-135.3c0-36.3,29.4-65.7,65.7-65.7h414.6
	c36.3,0,65.7,29.4,65.7,65.7v135.3C-694.7-914.9-724.1-885.5-760.4-885.5z"/>
</svg>
